# xmcd
#
# Track frame offsets:
#	150
#	26092
#	59687
#	90085
#	119197
#	140000
#	164020
#	180410
#	198780
#	225805
#	239332
#	260037
#	288680
#	307357
#
# Disc length: 4404 seconds
#
# Revision: 1
# Processed by: cddbd v1.5.1PL0 Copyright (c) Steve Scherf et al.
# Submitted via: dBpowerAMP V4.0
#
DISCID=d111320e
DTITLE=Robert B. Parker - Potshot [Read by Joe Mantegna] Disc 3
DYEAR=2001
DGENRE=Audio Book
TTITLE0=Potshot CD 3-Track 01
TTITLE1=Potshot CD 3-Track 02
TTITLE2=Potshot CD 3-Track 03
TTITLE3=Potshot CD 3-Track 04
TTITLE4=Potshot CD 3-Track 05
TTITLE5=Potshot CD 3-Track 06
TTITLE6=Potshot CD 3-Track 07
TTITLE7=Potshot CD 3-Track 08
TTITLE8=Potshot CD 3-Track 09
TTITLE9=Potshot CD 3-Track 10
TTITLE10=Potshot CD 3-Track 11
TTITLE11=Potshot CD 3-Track 12
TTITLE12=Potshot CD 3-Track 13
TTITLE13=Potshot CD 3-Track 14
EXTD=
EXTT0=
EXTT1=
EXTT2=
EXTT3=
EXTT4=
EXTT5=
EXTT6=
EXTT7=
EXTT8=
EXTT9=
EXTT10=
EXTT11=
EXTT12=
EXTT13=
PLAYORDER=
